<svg width="22" height="22" viewBox="0 0 22 22" fill="none" xmlns="http://www.w3.org/2000/svg">
<path d="M11 0.730469C16.6719 0.730469 21.2609 5.31953 21.2609 10.9828C21.2609 16.6461 16.6719 21.2437 11 21.2437C5.32813 21.2437 0.739063 16.6547 0.739063 10.9914C0.739063 5.32812 5.32813 0.730469 11 0.730469Z" fill="#E74D89"/>
<path d="M11.5 22C5.70859 22 1 17.2941 1 11.5041C1 5.70591 5.70859 1 11.5 1C17.2914 1 22 5.70591 22 11.4959C22 17.2859 17.2914 22 11.5 22ZM20.3512 12.9331C20.0477 12.8346 17.5785 12.1036 14.7648 12.5471C15.9379 15.7665 16.4137 18.3946 16.5039 18.9366C18.5219 17.5815 19.9574 15.4298 20.3512 12.9331ZM15.0027 19.7661C14.8715 18.9777 14.3465 16.2347 13.0914 12.966C13.075 12.9742 13.0504 12.9824 13.034 12.9824C7.97266 14.7481 6.15977 18.255 5.9957 18.5835C7.51328 19.7661 9.42461 20.4724 11.5 20.4724C12.7387 20.4806 13.9281 20.226 15.0027 19.7661ZM4.83906 17.5076C5.04414 17.1627 7.50508 13.0892 12.1316 11.5862C12.2465 11.5452 12.3695 11.5123 12.4844 11.4795C12.2629 10.9703 12.0168 10.4611 11.7543 9.96011C7.27539 11.2988 2.92773 11.2413 2.53398 11.2331C2.53398 11.3234 2.52578 11.4138 2.52578 11.5041C2.53398 13.8119 3.40352 15.9144 4.83906 17.5076ZM2.72266 9.67266C3.12461 9.68088 6.81602 9.6973 11.016 8.58037C9.53125 5.93586 7.92344 3.71842 7.69375 3.39812C5.17539 4.58076 3.30508 6.89675 2.72266 9.67266ZM9.4 2.79038C9.64609 3.11889 11.2785 5.33633 12.7469 8.03833C15.9379 6.83926 17.2832 5.03246 17.4473 4.8025C15.8641 3.39812 13.7805 2.544 11.5 2.544C10.7781 2.544 10.0727 2.63434 9.4 2.79038ZM18.4398 5.83731C18.2512 6.09191 16.75 8.0219 13.4359 9.377C13.641 9.80407 13.8461 10.2393 14.0348 10.6746C14.1004 10.8307 14.166 10.9867 14.2316 11.1345C17.2176 10.7567 20.1789 11.3645 20.4742 11.422C20.4496 9.3113 19.6949 7.36488 18.4398 5.83731Z" fill="#B2215A"/>
</svg>
