<svg width="20" height="15" viewBox="0 0 20 15" fill="none" xmlns="http://www.w3.org/2000/svg">
<g clip-path="url(#clip0)">
<path d="M4.54547 14.9261V7.23881L2.14898 5.05775L0 3.84741V13.5695C0 14.3201 0.611328 14.9261 1.36367 14.9261H4.54547Z" fill="#4285F4"/>
<path d="M15.4545 14.9262H18.6363C19.3909 14.9262 20 14.3179 20 13.5696V3.84753L17.5659 5.23383L15.4545 7.23886V14.9262Z" fill="#34A853"/>
<path d="M4.54547 7.2388L4.21938 4.23514L4.54547 1.36035L10 5.43009L15.4545 1.36035L15.8194 4.07994L15.4545 7.2388L10 11.3085L4.54547 7.2388Z" fill="#EA4335"/>
<path d="M15.4545 1.36039V7.23884L20 3.84744V2.03865C20 0.361064 18.075 -0.595283 16.7273 0.410805L15.4545 1.36039Z" fill="#FBBC04"/>
<path d="M0 3.84735L2.09055 5.4072L4.54547 7.23875V1.3603L3.27266 0.410719C1.92266 -0.595447 0 0.360978 0 2.03849V3.84727V3.84735Z" fill="#C5221F"/>
</g>
<defs>
<clipPath id="clip0">
<rect width="20" height="15" fill="white"/>
</clipPath>
</defs>
</svg>
