<svg width="19" height="19" viewBox="0 0 19 19" fill="none" xmlns="http://www.w3.org/2000/svg">
<g clip-path="url(#clip0)">
<path d="M16.1889 16.1892H13.3737V11.7803C13.3737 10.729 13.3549 9.37566 11.9095 9.37566C10.4432 9.37566 10.2189 10.5211 10.2189 11.7038V16.1889H7.40377V7.1226H10.1063V8.36161H10.1441C10.4146 7.89915 10.8054 7.51871 11.275 7.2608C11.7446 7.0029 12.2753 6.87718 12.8107 6.89705C15.664 6.89705 16.1901 8.77389 16.1901 11.2155L16.1889 16.1892ZM4.2272 5.88337C3.32493 5.88352 2.59335 5.15216 2.5932 4.24989C2.59305 3.34761 3.32433 2.61604 4.22661 2.61589C5.12889 2.61566 5.86046 3.34702 5.86061 4.24929C5.86069 4.68258 5.68864 5.09816 5.38232 5.40461C5.076 5.71106 4.66049 5.88327 4.2272 5.88337ZM5.63484 16.1892H2.81668V7.1226H5.63476V16.1892L5.63484 16.1892ZM17.5924 0.00138284H1.40207C0.636871 -0.00722654 0.00935156 0.605746 0 1.37094V17.6288C0.00905469 18.3943 0.6365 19.0079 1.40199 18.9999H17.5924C18.3595 19.0094 18.9894 18.3958 19 17.6288V1.36968C18.9891 0.603 18.3591 -0.00989841 17.5924 0.000121117" fill="#0A66C2"/>
</g>
<defs>
<clipPath id="clip0">
<rect width="19" height="19" fill="white"/>
</clipPath>
</defs>
</svg>
